<svg id="Layer_1" data-name="Layer 1" xmlns="http://www.w3.org/2000/svg" viewBox="0 0 190 240"><defs><style>.cls-1{fill:#bcbec0;}.cls-2{fill:#fff;fill-rule:evenodd;}</style></defs><rect class="cls-1" x="-2" y="-2" width="194" height="243"/><path class="cls-2" d="M74.49,153.54l-.42-3.09c-15.29.47-23.23-7.22-26.48-20.14-3.3,7.35.8,13.72,10.6,19.34-8.32-2.2-13.81-6.88-14.32-15.8.89-6.59,1.82-13.17,2.66-19.76.34-2.58-.13-4.9-.34-7.48-1.56-19.18,1.48-37.47,11.2-54.23,7.89-12.25,16.89-17.07,27.28-12.72,11.49-10.77,24-12,37.89.51,23.65,16.85,22,45,20.53,70.83-.17,2.79.67,4.56,1.35,7.22,3.76,14.92,2.28,26.78-13.35,32.91l-.29.13c7.85-7.35,12.37-13.6,9.29-17.41-4.44,12.21-11.7,17.53-23.19,18.8l-.08.93,3.08,0c7.73,0,11.91,3.89,12.75,11.66,43,7.48,55,30.41,54.32,74.72H3c-.63-44.31,11.37-67.24,54.37-74.72.8-7.77,5-11.7,12.71-11.66Z"/></svg>