<svg id="Layer_1" data-name="Layer 1" xmlns="http://www.w3.org/2000/svg" viewBox="0 0 190 240"><defs><style>.cls-1{fill:#bcbec0;}.cls-2{fill:#fff;fill-rule:evenodd;}</style></defs><rect class="cls-1" x="-2" y="-2" width="194" height="243"/><path class="cls-2" d="M3,240c-.63-44.32,11.38-67.24,54.35-74.74.76-7.17,4.39-11.09,11-11.59l.47-12c-5.65-5.52-7.55-11.29-6.62-17.19a33,33,0,0,1-10.36-17.78c-3-12.43-.68-15.3,4-13.78a95.27,95.27,0,0,1-3-32.61C56,49,61.59,41.39,72.8,42.27c3.58-6.53,9.94-5.48,16.17-7.42a2.88,2.88,0,0,0-.54,3.71c11.16-4.42,21.4-.46,27.05-.55-1.6,1.35-2.45,2.83-2.11,4.51,20.6,1.06,27.43,18.37,22.25,49.85,7.54-1.69,3.37,17.4-7.42,32.56.51,8-2.27,13.15-6.36,17.24l.29,11.54c6.28.67,9.78,4.55,10.49,11.55,43,7.5,55,30.42,54.36,74.74H3Z"/></svg>