<svg id="Art" xmlns="http://www.w3.org/2000/svg" viewBox="0 0 50 50"><defs><style>.cls-1{fill:#8f9a9d;}</style></defs><path class="cls-1" d="M25,50A25,25,0,0,1,0,25,25,25,0,0,1,25,0,25,25,0,0,1,50,25,25,25,0,0,1,25,50ZM25,2.1A22.9,22.9,0,1,0,47.9,25,22.92,22.92,0,0,0,25,2.1Z"/><path class="cls-1" d="M15,20.54h4.63v14.9H15Zm2.32-7.41a2.69,2.69,0,1,1-2.69,2.69,2.69,2.69,0,0,1,2.69-2.69"/><path class="cls-1" d="M22.5,20.54h4.44v2H27a4.88,4.88,0,0,1,4.39-2.41c4.69,0,5.55,3.08,5.55,7.1v8.17H32.32V28.2c0-1.73,0-4-2.41-4s-2.78,1.89-2.78,3.83v7.37H22.5Z"/></svg>