<svg id="Art" xmlns="http://www.w3.org/2000/svg" viewBox="0 0 50 50"><defs><style>.cls-1{fill:#8f9a9d;}</style></defs><path class="cls-1" d="M25,50A25,25,0,0,1,0,25,25,25,0,0,1,25,0,25,25,0,0,1,50,25,25,25,0,0,1,25,50ZM25,2.1A22.9,22.9,0,1,0,47.9,25,22.92,22.92,0,0,0,25,2.1Z"/><path class="cls-1" d="M38.23,16.79a10.51,10.51,0,0,1-2.64.76c.43-.07,1-.84,1.3-1.15a5,5,0,0,0,.88-1.6c0-.05,0-.11,0-.14a.17.17,0,0,0-.14,0,13.5,13.5,0,0,1-3.13,1.2.22.22,0,0,1-.22-.06,2.4,2.4,0,0,0-.27-.28,5.65,5.65,0,0,0-1.52-.93,5.27,5.27,0,0,0-2.33-.37,5.5,5.5,0,0,0-2.2.62,5.6,5.6,0,0,0-1.78,1.46,5.36,5.36,0,0,0-1.07,2.13,5.68,5.68,0,0,0-.05,2.25c0,.12,0,.14-.11.12-4.3-.64-7.87-2.18-10.76-5.48-.13-.14-.2-.14-.3,0a5.46,5.46,0,0,0,.93,6.45c.21.2.43.4.66.58a5.36,5.36,0,0,1-2.08-.58c-.12-.08-.18,0-.2.11a3.34,3.34,0,0,0,0,.62,5.52,5.52,0,0,0,3.4,4.4,3.43,3.43,0,0,0,.69.21,6.33,6.33,0,0,1-2,.06c-.15,0-.2,0-.15.19A5.74,5.74,0,0,0,19.41,31c.2,0,.39,0,.59.08,0,0,0,0,0,0-.48.73-2.14,1.27-2.92,1.55a10.47,10.47,0,0,1-4.44.56c-.24,0-.29,0-.35,0s0,.1.07.16c.3.2.61.38.92.55a15,15,0,0,0,3,1.19c5.33,1.47,11.34.39,15.34-3.59,3.14-3.12,4.25-7.43,4.25-11.75,0-.16.2-.26.31-.35a10.25,10.25,0,0,0,2.09-2.17.64.64,0,0,0,.14-.41v0C38.34,16.72,38.34,16.75,38.23,16.79Z"/></svg>