<svg id="Art" xmlns="http://www.w3.org/2000/svg" viewBox="0 0 290 56"><defs><style>.cls-1{fill:#fff;}</style></defs><path class="cls-1" d="M28.17,56A28,28,0,1,1,56.34,28,28.12,28.12,0,0,1,28.17,56m0-55A27,27,0,1,0,55.35,28,27.13,27.13,0,0,0,28.17,1"/><path class="cls-1" d="M28.17,3.49A24.59,24.59,0,0,0,3.51,28v0a24.27,24.27,0,0,0,1,6.7l10.6-11.9,11.35,7c1.91-2.05,7.74-8.29,10.2-10.94l-2.49-1.71,8.34-.79.93,7.16L40.81,21.7,27.43,36.06,16.21,29.18c-1.71,1.95-5.79,6.46-9.58,10.74A24.68,24.68,0,0,0,52.83,28v0A24.59,24.59,0,0,0,28.17,3.49"/><path class="cls-1" d="M78.41,18.43a4.48,4.48,0,0,0,2.51-4.19c0-3-2-4.86-5.25-4.86H67.45V28.54h8.38c3.32,0,5.64-2.2,5.64-5.35a4.77,4.77,0,0,0-3.06-4.76m-2.58,8.88H68.7V19.1h7c2.84,0,4.47,1.49,4.47,4.09,0,2.84-2.2,4.12-4.39,4.12m-.08-9.42h-7V10.61h7c2.54,0,4,1.32,4,3.63,0,2.52-2,3.65-3.92,3.65"/><rect class="cls-1" x="84.48" y="8.01" width="1.24" height="20.53"/><path class="cls-1" d="M95.52,13.91a7.37,7.37,0,0,0-7.17,7.53,7.19,7.19,0,1,0,14.37,0,7.38,7.38,0,0,0-7.2-7.53m0,13.78a6.1,6.1,0,0,1-5.92-6.25,5.94,5.94,0,1,1,11.85,0,6.1,6.1,0,0,1-5.93,6.25"/><path class="cls-1" d="M116,22.86a4.82,4.82,0,0,1-9.63,0v-8.6h-1.24v8.6a5.83,5.83,0,0,0,6,6A5.7,5.7,0,0,0,116,26.5v2h1.24V14.26H116Z"/><path class="cls-1" d="M127.19,13.91a6,6,0,0,0-5,2.46V14.26H121V28.54h1.24v-8.6a4.8,4.8,0,0,1,5-4.83c3,0,4.66,1.77,4.66,4.83v8.6h1.25v-8.6c0-3.78-2.2-6-5.88-6"/><path class="cls-1" d="M138.12,11.26h-1.24v3H135V15.5h1.92v8.07A5.42,5.42,0,0,0,138,27.19a4.13,4.13,0,0,0,3.25,1.38,5.07,5.07,0,0,0,.55,0h.11V27.38h-.36c-2.86,0-3.46-2.08-3.46-3.82V15.5h3.82V14.26h-3.82Z"/><path class="cls-1" d="M160.47,9.38h-7.72V28.54H154V20.11h6.56c3.35,0,5.69-2.21,5.69-5.38S164,9.38,160.47,9.38m.08,9.49H154V10.61h6.48c2.87,0,4.53,1.5,4.53,4.12,0,2.86-2.24,4.14-4.45,4.14"/><path class="cls-1" d="M179.45,26.14V18.19c0-2.72-2.07-4.28-5.69-4.28-3.19,0-5.39,1.47-6,4l0,.14H169l0-.08c.59-1.87,2.29-2.9,4.78-2.9,1.66,0,4.45.41,4.45,3.08,0,1.63-2,1.94-5.11,2.24s-6.12,1-6.12,4.31c0,2.78,2.72,4.05,5.25,4.05a7.58,7.58,0,0,0,6-2.35,4.7,4.7,0,0,0,.39,2l0,.06h1.29l-.07-.15a7.37,7.37,0,0,1-.4-2.25m-7.22,1.41c-1.36,0-3.93-.59-3.93-2.83,0-1.89,1.43-2.8,4.92-3.14,1.79-.15,3.8-.31,5-1.23v3c0,2.92-3,4.22-6,4.22"/><path class="cls-1" d="M185.16,15.38a4.65,4.65,0,0,0-.74.92v-2h-1.27V28.54h1.27v-8.6A4.84,4.84,0,0,1,186,16.29,5.19,5.19,0,0,1,190,15.11h.12V14h-.1a6.23,6.23,0,0,0-4.9,1.42"/><path class="cls-1" d="M194.87,11.26h-1.24v3h-1.92V15.5h1.92v8.07a5.47,5.47,0,0,0,1.15,3.62A4.15,4.15,0,0,0,198,28.57l.56,0h.1V27.38h-.36c-2.86,0-3.46-2.08-3.46-3.82V15.5h3.82V14.26h-3.82Z"/><path class="cls-1" d="M207.34,13.91a6,6,0,0,0-5,2.46V14.26H201.1V28.54h1.24v-8.6a4.8,4.8,0,0,1,5-4.83c3,0,4.66,1.77,4.66,4.83v8.6h1.25v-8.6c0-3.78-2.2-6-5.88-6"/><path class="cls-1" d="M222.77,13.91a7.37,7.37,0,0,0-7.17,7.53,7.3,7.3,0,0,0,7.33,7.43,6.51,6.51,0,0,0,6.7-4.77l.05-.15h-1.3l0,.08a5.27,5.27,0,0,1-5.42,3.6,6.06,6.06,0,0,1-6.09-6.13h13.1v-.11A7.69,7.69,0,0,0,227.71,16a6.92,6.92,0,0,0-4.94-2.09m0,1.26a6,6,0,0,1,5.82,5.1H217a6,6,0,0,1,5.8-5.1"/><path class="cls-1" d="M234.45,15.38a4.2,4.2,0,0,0-.74.91v-2h-1.28V28.54h1.28v-8.6a4.81,4.81,0,0,1,1.53-3.65,5.17,5.17,0,0,1,4.08-1.18h.12V14h-.1a6.2,6.2,0,0,0-4.89,1.42"/><path class="cls-1" d="M246.21,20.29c-3.06-.42-4.51-.9-4.54-2.45a2.12,2.12,0,0,1,.66-1.55,5,5,0,0,1,3.56-1.2c2.41,0,4,1,4.62,2.89l0,.08h1.27l0-.14c-.62-2.59-2.71-4-5.9-4-2.72,0-5.47,1.35-5.47,3.93,0,2.85,3.1,3.3,5.54,3.65H246c3.41.49,4.76,1.32,4.81,3a2.41,2.41,0,0,1-.65,1.85,5.44,5.44,0,0,1-3.88,1.36c-3,0-4.93-1.2-5.4-3.38l0-.09h-1.24v.13c.47,2.83,3,4.52,6.68,4.52a6.65,6.65,0,0,0,4.75-1.67,3.81,3.81,0,0,0,1-2.76c-.14-2.9-2.91-3.7-5.89-4.15"/><path class="cls-1" d="M261,13.91a6,6,0,0,0-5,2.46V8h-1.24V28.54H256v-8.6a4.8,4.8,0,0,1,5-4.83c3,0,4.66,1.77,4.66,4.83v8.6h1.25v-8.6c0-3.78-2.21-6-5.88-6"/><rect class="cls-1" x="270.66" y="9.38" width="1.24" height="2.74"/><rect class="cls-1" x="270.66" y="14.26" width="1.24" height="14.28"/><path class="cls-1" d="M282.8,13.91a7,7,0,0,0-5.93,3.44V14.26h-1.24V34.79h1.24V25.47a7,7,0,0,0,5.93,3.4,7.32,7.32,0,0,0,7.2-7.43,7.38,7.38,0,0,0-7.2-7.53m0,13.72a6.07,6.07,0,0,1-5.93-6.19,5.94,5.94,0,1,1,11.86,0,6.07,6.07,0,0,1-5.93,6.19"/><path class="cls-1" d="M67.48,43.42c0-3.84,2.77-7.36,6.21-7.36a3.67,3.67,0,0,1,3.14,1.45l.68-1.39h.72l-1,4h-.61c0-2.39-1.26-3.33-3-3.33-2.87,0-4.89,3.15-4.89,6.53,0,2.35,1.18,3.72,3.19,3.72,2.18,0,3.33-1.87,4.17-3.66l.67.27c-1,2.25-2.45,4.18-5.08,4.18-2.82,0-4.23-2-4.23-4.45"/><path class="cls-1" d="M82.85,46.27c0-1.42,1.32-3.36,1.32-4.84a.7.7,0,0,0-.74-.78c-1.1,0-3,2-4.35,7H77.91l3-11.28H79.24l.18-.68h2.77L80.1,43.28l.12,0c1.14-2.32,2.46-3.59,3.65-3.59.82,0,1.44.59,1.44,1.67,0,1.52-1.37,3.8-1.37,5,0,.19,0,.48.39.48s.93-.76,1.4-2l.47.16c-.79,2.17-1.45,2.73-2.19,2.73s-1.17-.52-1.16-1.5"/><path class="cls-1" d="M93.09,44.67a6.23,6.23,0,0,0-.32,1.67c0,.19,0,.6.44.6s.93-.77,1.4-2.06l.48.16c-.79,2.17-1.42,2.73-2.14,2.73s-1.12-.42-1.12-1.39a2.36,2.36,0,0,1,0-.49l-.12,0c-.81,1.22-1.63,1.93-2.6,1.93-1.15,0-2-.92-2-2.58A6.41,6.41,0,0,1,89,40.82a3.32,3.32,0,0,1,2.23-1.08c.79,0,1.49.49,1.72,1.66l.42-1.56H94.4Zm-.49-2.35c0-.72-.3-1.94-1.37-1.94-1.47,0-2.94,2.6-2.94,4.85,0,1.16.5,1.72,1.22,1.72,1.53,0,3.09-2.84,3.09-4.63"/><path class="cls-1" d="M105.81,46.27c0-1.42,1.32-3.36,1.32-4.84a.7.7,0,0,0-.74-.78c-1.1,0-2.82,2-4.19,7h-1.15l.35-1.3a28.88,28.88,0,0,0,1.19-4.79c0-.3,0-.87-.77-.87-1.11,0-2.82,2-4.19,7H96.45l1.44-5.33c.44-1.62.16-1.81-.14-1.81-.51,0-1,.92-1.56,2l-.46-.21c.72-1.59,1.37-2.53,2.25-2.53.68,0,1,.51,1,1.29a8.58,8.58,0,0,1-.39,2.14l.12.06c1.14-2.32,2.33-3.52,3.53-3.52a1.35,1.35,0,0,1,1.35,1.53,6.51,6.51,0,0,1-.43,1.93l.13.06c1.14-2.32,2.33-3.52,3.52-3.52.82,0,1.44.59,1.44,1.67,0,1.52-1.37,3.8-1.37,5,0,.19,0,.48.39.48s.93-.76,1.4-2l.47.16c-.79,2.17-1.45,2.73-2.19,2.73s-1.17-.52-1.16-1.5"/><path class="cls-1" d="M112.21,41.62l.12.05c.81-1.22,1.63-1.93,2.61-1.93,1.18,0,2,.92,2,2.58,0,2.77-2.16,5.45-4.21,5.45a2.31,2.31,0,0,1-2.4-2.47,11.4,11.4,0,0,1,.49-2.7l1.75-6.27H111l.17-.68h2.77Zm-.75,3.68c0,.9.35,1.81,1.4,1.81,1.68,0,3-2.79,3-4.83,0-1.17-.51-1.72-1.25-1.72-1.59,0-3.13,2.93-3.13,4.74"/><path class="cls-1" d="M119.24,44.39a3.86,3.86,0,0,0,0,.47c0,1.47.65,2.23,1.67,2.23a3.38,3.38,0,0,0,2.66-1.78l.42.3a4.14,4.14,0,0,1-3.33,2.16A2.48,2.48,0,0,1,118.07,45c0-2.7,2.5-5.26,4.62-5.26,1.19,0,1.84.71,1.84,1.53,0,1.57-1.66,2.68-5.29,3.12m.09-.5c3.31-.44,4.13-1.56,4.13-2.58a.94.94,0,0,0-1-1c-1.49,0-2.75,1.87-3.12,3.58"/><path class="cls-1" d="M127.39,42.28c.44-1.62.16-1.81-.14-1.81-.51,0-1,.92-1.56,2l-.46-.21c.72-1.59,1.37-2.53,2.25-2.53.68,0,1,.51,1,1.29a8.76,8.76,0,0,1-.38,2.15l.14,0c1.1-2.18,2-3.52,3-3.52a.84.84,0,0,1,.88.91,1,1,0,0,1-.83,1.06c-.44,0-.7-.39-.61-1-.82.4-2.4,2.73-3.52,6.91H126Z"/><path class="cls-1" d="M142.46,42.88c0,2.58-1.86,4.89-4,4.89-1.81,0-2.78-1.34-2.78-3.13,0-2.58,1.88-4.9,4.07-4.9,1.79,0,2.75,1.34,2.75,3.14m-2.73-2.57c-1.88,0-3,2.81-3,4.76,0,1.53.77,2.13,1.61,2.13,1.87,0,3-2.81,3-4.76,0-1.53-.77-2.13-1.61-2.13"/><path class="cls-1" d="M141.52,49.55a.77.77,0,0,1,.73-.85.57.57,0,0,1,.6.6,1,1,0,0,1-.23.63c.63,0,.91-.56,1.47-3.17l1.3-6.17h-1.74l.16-.61h1.7c.63-3.11,1.83-4.4,3.35-4.42,1,0,1.61.5,1.61,1.17s-.31,1-.81,1a.62.62,0,0,1-.63-.66,1.12,1.12,0,0,1,.37-.83.83.83,0,0,0-.54-.16c-1.18,0-1.65,1.29-2.09,3.21l-.15.67h2.17l-.16.61h-2.14l-1.19,5.68c-.66,3.16-1.56,4.13-2.75,4.13-.72,0-1-.42-1-.85"/><path class="cls-1" d="M152.61,43.42c0-3.84,2.77-7.36,6.21-7.36A3.66,3.66,0,0,1,162,37.51l.69-1.39h.71l-1,4h-.61c0-2.39-1.26-3.33-3-3.33-2.87,0-4.89,3.15-4.89,6.53,0,2.35,1.17,3.72,3.19,3.72s3.33-1.87,4.17-3.66l.67.27c-1,2.25-2.46,4.18-5.09,4.18-2.82,0-4.22-2-4.22-4.45"/><path class="cls-1" d="M170,42.88c0,2.58-1.86,4.89-4.05,4.89-1.8,0-2.77-1.34-2.77-3.13,0-2.58,1.88-4.9,4.07-4.9,1.79,0,2.75,1.34,2.75,3.14m-2.73-2.57c-1.88,0-3,2.81-3,4.76,0,1.53.77,2.13,1.61,2.13,1.87,0,3-2.81,3-4.76,0-1.53-.77-2.13-1.61-2.13"/><path class="cls-1" d="M181.09,46.27c0-1.42,1.32-3.36,1.32-4.84a.7.7,0,0,0-.74-.78c-1.1,0-2.82,2-4.19,7h-1.16l.36-1.3a30,30,0,0,0,1.19-4.79c0-.3,0-.87-.78-.87-1.1,0-2.82,2-4.18,7h-1.18l1.44-5.33c.44-1.62.16-1.81-.14-1.81-.51,0-1,.92-1.56,2L171,42.3c.72-1.59,1.37-2.53,2.25-2.53.68,0,1,.51,1,1.29a8.59,8.59,0,0,1-.38,2.14l.12.06c1.14-2.32,2.33-3.52,3.52-3.52a1.35,1.35,0,0,1,1.35,1.53,6.47,6.47,0,0,1-.42,1.93l.12.06c1.14-2.32,2.34-3.52,3.53-3.52.82,0,1.43.59,1.43,1.67,0,1.52-1.36,3.8-1.36,5,0,.19,0,.48.38.48s.93-.76,1.41-2l.47.16c-.79,2.17-1.46,2.73-2.19,2.73s-1.18-.52-1.16-1.5"/><path class="cls-1" d="M195.25,46.27c0-1.42,1.32-3.36,1.32-4.84a.7.7,0,0,0-.74-.78c-1.1,0-2.82,2-4.19,7h-1.15l.35-1.3A30,30,0,0,0,192,41.52c0-.3,0-.87-.77-.87-1.11,0-2.82,2-4.19,7h-1.18l1.44-5.33c.44-1.62.16-1.81-.14-1.81-.51,0-1,.92-1.56,2l-.46-.21c.72-1.59,1.37-2.53,2.25-2.53.68,0,1,.51,1,1.29a8.58,8.58,0,0,1-.39,2.14l.12.06c1.14-2.32,2.33-3.52,3.53-3.52a1.35,1.35,0,0,1,1.35,1.53,6.51,6.51,0,0,1-.43,1.93l.13.06c1.14-2.32,2.33-3.52,3.52-3.52.82,0,1.44.59,1.44,1.67,0,1.52-1.37,3.8-1.37,5,0,.19,0,.48.39.48s.92-.76,1.4-2l.47.16c-.79,2.17-1.45,2.73-2.19,2.73s-1.17-.52-1.16-1.5"/><path class="cls-1" d="M200.69,44.39a3.86,3.86,0,0,0,0,.47c0,1.47.65,2.23,1.67,2.23s1.83-.63,2.66-1.78l.42.3a4.14,4.14,0,0,1-3.33,2.16A2.49,2.49,0,0,1,199.51,45c0-2.7,2.51-5.26,4.63-5.26,1.19,0,1.84.71,1.84,1.53,0,1.57-1.67,2.68-5.29,3.12m.08-.5c3.32-.44,4.14-1.56,4.14-2.58a.94.94,0,0,0-1-1c-1.49,0-2.75,1.87-3.12,3.58"/><path class="cls-1" d="M208.84,42.28c.43-1.62.15-1.81-.14-1.81-.51,0-1,.92-1.56,2l-.46-.21c.72-1.59,1.37-2.53,2.24-2.53.69,0,1,.51,1,1.29a8.75,8.75,0,0,1-.39,2.15l.15,0c1.1-2.18,2-3.52,3-3.52a.84.84,0,0,1,.87.91,1,1,0,0,1-.82,1.06c-.44,0-.7-.39-.61-1-.83.4-2.4,2.73-3.53,6.91H207.4Z"/><path class="cls-1" d="M220,41.34c0,.58-.34,1.1-.84,1.1a.69.69,0,0,1-.72-.7,1.25,1.25,0,0,1,.56-1,1.47,1.47,0,0,0-1.12-.46c-1.95,0-3.14,2.48-3.14,4.29,0,1.57.75,2.44,1.77,2.44.75,0,1.57-.38,2.4-1.86l.44.26c-.74,1.37-1.68,2.33-3.1,2.33-1.64,0-2.67-1.27-2.67-3.1,0-2.37,2-4.93,4.31-4.93,1.11,0,2.11.61,2.11,1.6"/><path class="cls-1" d="M221.93,44.39a3.86,3.86,0,0,0,0,.47c0,1.47.65,2.23,1.67,2.23a3.38,3.38,0,0,0,2.66-1.78l.42.3a4.14,4.14,0,0,1-3.33,2.16A2.48,2.48,0,0,1,220.76,45c0-2.7,2.5-5.26,4.62-5.26,1.19,0,1.84.71,1.84,1.53,0,1.57-1.66,2.68-5.29,3.12m.09-.5c3.31-.44,4.13-1.56,4.13-2.58a.94.94,0,0,0-1-1c-1.49,0-2.76,1.87-3.12,3.58"/></svg>