<svg xmlns="http://www.w3.org/2000/svg" viewBox="0 0 170 267"><defs><style>.cls-1{isolation:isolate;}.cls-2{fill:#ca7729;opacity:0.8;}.cls-2,.cls-3{mix-blend-mode:multiply;}.cls-4{fill:#4a4f5c;}.cls-5{fill:#fff;}.cls-6{fill:#58595b;}</style></defs><g class="cls-1"><g id="Art"><path class="cls-2" d="M152.62,0H17.38C7.78,0,0,8.07,0,18V179.14c0,10,7.78,18,17.38,18H152.62c9.6,0,17.38-8.07,17.38-18V18C170,8.07,162.22,0,152.62,0Z"/><g class="cls-3"><g id="_12" data-name="12"><path class="cls-4" d="M88.48,84.41l-3.33-1.06,3.54-11.27A5.68,5.68,0,0,1,92,68.53l40.65-16.7,1.32,3.25L93.27,71.78A2.14,2.14,0,0,0,92,73.14Z"/><path class="cls-4" d="M103.35,112.35a1.72,1.72,0,0,1-1-.34l-9.51-7,2.06-2.82,8.3,6.13.84-.85a3.91,3.91,0,0,0-.35-5.79l-.9-.72,2.17-2.74.9.72a7.42,7.42,0,0,1,.66,11l-1.9,1.93A1.76,1.76,0,0,1,103.35,112.35Z"/><path class="cls-4" d="M112.43,110.12a1.67,1.67,0,0,1-1-.35l-3.18-2.37,2.09-2.81,1.91,1.43,1.32-1.46a1.83,1.83,0,0,0,.5-1.36,1.93,1.93,0,0,0-.68-1.34L108,97.29l2.26-2.66,5.33,4.57a5.36,5.36,0,0,1,.48,7.73l-2.39,2.62A1.71,1.71,0,0,1,112.43,110.12Z"/><path class="cls-4" d="M120.1,101.91l-2.57-2.36,1.77-1.94a1.85,1.85,0,0,0,.49-1.37,1.91,1.91,0,0,0-.67-1.33L115.72,92,118,89.33l3.4,2.92a5.38,5.38,0,0,1,.49,7.73Z"/><path class="cls-4" d="M65.52,152.18h-1a6.27,6.27,0,0,1-6.24-6.27v-4.56a6.26,6.26,0,0,1,6.24-6.27h1a6.26,6.26,0,0,1,6.24,6.27v4.56A6.27,6.27,0,0,1,65.52,152.18Zm-1-13.6a2.77,2.77,0,0,0-2.76,2.77v4.56a2.77,2.77,0,0,0,2.76,2.76h1a2.76,2.76,0,0,0,2.75-2.76v-4.56a2.76,2.76,0,0,0-2.75-2.77Z"/><rect class="cls-4" x="73.24" y="135.2" width="12.36" height="3.5"/><rect class="cls-4" x="77.67" y="136.95" width="3.49" height="15.12"/><path class="cls-4" d="M96.76,152.19H89.28a1.75,1.75,0,0,1-1.75-1.75V137a1.75,1.75,0,0,1,1.75-1.75h7.48v3.51H91v10h5.74Z"/><rect class="cls-4" x="89.28" y="142.05" width="6.94" height="3.5"/><path class="cls-4" d="M50.18,152.18a1.75,1.75,0,0,1-1.61-1.07l-5.73-13.6a1.75,1.75,0,1,1,3.21-1.37l4.09,9.7L54,136.17a1.74,1.74,0,1,1,3.23,1.31l-5.44,13.6a1.76,1.76,0,0,1-1.6,1.1Z"/><path class="cls-4" d="M116.21,128.8,96.34,108.46H44.87L25,128.8l-2.49-2.46,20.39-20.86a1.77,1.77,0,0,1,1.25-.52H97.07a1.75,1.75,0,0,1,1.24.52l20.39,20.86Z"/><path class="cls-4" d="M115.26,157.51h-3.49V143.66a1.74,1.74,0,0,1,1.74-1.75h2.2V129.32H25.49v12.59h2.2a1.74,1.74,0,0,1,1.74,1.75v13.85H26v-12.1h-2.2A1.76,1.76,0,0,1,22,143.66V127.57a1.75,1.75,0,0,1,1.75-1.75h93.71a1.74,1.74,0,0,1,1.74,1.75v16.09a1.75,1.75,0,0,1-1.74,1.75h-2.2Z"/><rect class="cls-4" x="27.76" y="141.91" width="8.02" height="3.5"/><polygon class="cls-5" points="96.22 117.69 109.09 92.42 67.41 70.99 51.62 101.99 96.22 117.69"/><polygon class="cls-5" points="91.63 117.14 105.23 90.43 71.27 72.97 48.72 117.24 91.63 117.14"/><path class="cls-4" d="M50.27,118l-3.1-1.6L69.72,72.17a1.74,1.74,0,0,1,2.34-.76l34,17.46a1.72,1.72,0,0,1,.87,1,1.78,1.78,0,0,1-.11,1.34l-13.6,26.71-3.11-1.6,12.81-25.15L72,75.33Z"/><path class="cls-4" d="M95.39,119H45.81a1.75,1.75,0,0,1,0-3.5H95.39a1.75,1.75,0,0,1,0,3.5Z"/><path class="cls-5" d="M106.37,69.87S104.67,83,89.84,93.75l1.69,3.39c1.37,2.49,3.86,2.43,6.54,1.51,3.53-1.21,9.44-3.62,12.66-9,0,0,21.07-6.29,17.7-17.82l6.33-2.37Z"/><path class="cls-4" d="M95.1,101A5.48,5.48,0,0,1,90,98l-1.73-3.46a1.76,1.76,0,0,1,.54-2.2c14-10.13,15.81-22.56,15.83-22.69l3.45.46c-.07.55-1.87,13.3-16,24.18l1,2.08c.33.59,1,1.8,4.42.63,2.11-.72,8.55-2.93,11.73-8.19a1.73,1.73,0,0,1,1-.77c.19-.06,19.37-5.93,16.53-15.66a1.74,1.74,0,0,1,1.06-2.13l6.33-2.37,1.22,3.29L130.45,73c1.53,11-15,17-18.59,18.19-3.92,5.93-10.89,8.32-13.23,9.13A11.12,11.12,0,0,1,95.1,101Z"/><polygon class="cls-5" points="140.6 55.89 147.49 71.09 135.84 76.16 124.25 50.58 135.9 45.51 137.16 48.28 144.27 45.19 140.6 55.89"/><path class="cls-4" d="M135.84,77.91a1.74,1.74,0,0,1-1.59-1L122.66,51.3a1.71,1.71,0,0,1,0-1.35,1.75,1.75,0,0,1,.93-1L135.2,43.9a1.73,1.73,0,0,1,2.28.88L138,46l5.54-2.41L145,46.8l-7.11,3.09a1.74,1.74,0,0,1-2.28-.88L135,47.8l-8.45,3.68,10.15,22.39,8.45-3.68L139,56.61l3.18-1.45,6.89,15.2a1.78,1.78,0,0,1,0,1.36,1.72,1.72,0,0,1-.94,1l-11.65,5.07A1.68,1.68,0,0,1,135.84,77.91Z"/><path class="cls-5" d="M153.28,65.07l-7.11,3.09Z"/><polygon class="cls-4" points="146.86 69.77 145.47 66.56 152.59 63.46 153.97 66.68 146.86 69.77"/></g></g><path class="cls-6" d="M30.23,238H27.94V221.9H39.26v2h-9ZM30,229.52h8.27v2H30Z"/><path class="cls-6" d="M43.27,223.46a1.5,1.5,0,0,1-1.07-.41,1.46,1.46,0,0,1,0-2.05,1.47,1.47,0,0,1,1.07-.42,1.5,1.5,0,0,1,1.07.41,1.31,1.31,0,0,1,.42,1,1.49,1.49,0,0,1-.41,1A1.46,1.46,0,0,1,43.27,223.46ZM42.17,238v-12.2h2.2V238Z"/><path class="cls-6" d="M55.05,225.69a5.75,5.75,0,0,1,2.62.58A4.12,4.12,0,0,1,59.45,228a6.11,6.11,0,0,1,.64,3v7h-2.2v-6.77a3.74,3.74,0,0,0-.86-2.67,3.18,3.18,0,0,0-2.42-.9,4.38,4.38,0,0,0-2,.46,3.2,3.2,0,0,0-1.34,1.36,4.85,4.85,0,0,0-.47,2.24V238h-2.2v-12.2h2.11v3.29l-.34-.87a4.24,4.24,0,0,1,1.83-1.87A6.07,6.07,0,0,1,55.05,225.69Z"/><path class="cls-6" d="M69.19,238.15a6.29,6.29,0,0,1-3.15-.78,5.62,5.62,0,0,1-2.19-2.19,7.06,7.06,0,0,1,0-6.53A5.64,5.64,0,0,1,66,226.48a6.19,6.19,0,0,1,3.15-.79,5.58,5.58,0,0,1,2.77.69,5,5,0,0,1,2,2.08,7.16,7.16,0,0,1,.75,3.45,7.41,7.41,0,0,1-.72,3.45,5,5,0,0,1-2,2.09A5.62,5.62,0,0,1,69.19,238.15Zm.18-1.93a4.15,4.15,0,0,0,2.08-.53,3.93,3.93,0,0,0,1.46-1.51,4.62,4.62,0,0,0,.54-2.27,4.57,4.57,0,0,0-.54-2.27,3.92,3.92,0,0,0-1.46-1.48,4.05,4.05,0,0,0-2.08-.53,4,4,0,0,0-3.55,2,4.46,4.46,0,0,0-.55,2.27,4.52,4.52,0,0,0,.55,2.27,4,4,0,0,0,1.47,1.51A4.1,4.1,0,0,0,69.37,236.22ZM73.52,238v-3.29l.14-2.83-.23-2.83v-8.13h2.2V238Z"/><path class="cls-6" d="M90.16,238v-6.17l.52,1.43L83.79,221.9h2.45l5.8,9.6H90.71l5.82-9.6H98.8l-6.88,11.37.51-1.43V238Z"/><path class="cls-6" d="M104.62,238.15a6.46,6.46,0,0,1-3.26-.81,5.89,5.89,0,0,1-2.24-2.22,6.64,6.64,0,0,1,0-6.43,5.91,5.91,0,0,1,2.24-2.2,7,7,0,0,1,6.5,0,5.92,5.92,0,0,1,2.25,2.19,6.83,6.83,0,0,1,0,6.45,5.9,5.9,0,0,1-2.25,2.21A6.49,6.49,0,0,1,104.62,238.15Zm0-1.93a4.14,4.14,0,0,0,2.09-.53,3.79,3.79,0,0,0,1.46-1.51,4.73,4.73,0,0,0,.53-2.27,4.67,4.67,0,0,0-.53-2.27,3.78,3.78,0,0,0-1.46-1.48,4.12,4.12,0,0,0-5.65,1.48,4.57,4.57,0,0,0-.55,2.27,4.62,4.62,0,0,0,.55,2.27,4,4,0,0,0,1.47,1.51A4.14,4.14,0,0,0,104.62,236.22Z"/><path class="cls-6" d="M119.08,238.15a6.1,6.1,0,0,1-2.74-.58,4,4,0,0,1-1.83-1.76,6.06,6.06,0,0,1-.66-3v-7h2.2v6.77a3.76,3.76,0,0,0,.86,2.69,3.2,3.2,0,0,0,2.42.9,4.07,4.07,0,0,0,2-.47,3.24,3.24,0,0,0,1.31-1.38,4.8,4.8,0,0,0,.46-2.2v-6.31h2.2V238H123.2v-3.29l.35.87a4.25,4.25,0,0,1-1.79,1.89A5.33,5.33,0,0,1,119.08,238.15Z"/><path class="cls-6" d="M129.48,238v-12.2h2.11v3.31l-.21-.82a3.75,3.75,0,0,1,1.7-1.94,6,6,0,0,1,2.93-.67v2.14l-.26,0h-.24a3.72,3.72,0,0,0-2.8,1.06,4.21,4.21,0,0,0-1,3.06V238Z"/><path class="cls-6" d="M35.11,261V244.92h6.26a8.73,8.73,0,0,1,3.6.67,5.13,5.13,0,0,1,2.29,1.93,6.06,6.06,0,0,1,0,6A5.19,5.19,0,0,1,45,255.47a8.57,8.57,0,0,1-3.6.68h-5l1-1.08v6Zm2.29-5.74-1-1.15H41.3a5.07,5.07,0,0,0,3.33-.94,3.7,3.7,0,0,0,0-5.34,5.07,5.07,0,0,0-3.33-1H36.37l1-1.15Z"/><path class="cls-6" d="M50.9,261V248.83H53v3.32l-.21-.83a3.79,3.79,0,0,1,1.7-1.94,6,6,0,0,1,2.93-.66v2.14a1.18,1.18,0,0,0-.26,0h-.24a3.75,3.75,0,0,0-2.8,1,4.22,4.22,0,0,0-1,3.07V261Z"/><path class="cls-6" d="M65.43,261.17a7,7,0,0,1-3.43-.8,5.87,5.87,0,0,1-2.29-2.21,6.35,6.35,0,0,1-.81-3.23,6.43,6.43,0,0,1,.79-3.22,5.69,5.69,0,0,1,2.18-2.2,6.59,6.59,0,0,1,6.24,0,5.48,5.48,0,0,1,2.12,2.2A6.82,6.82,0,0,1,71,255c0,.09,0,.2,0,.33s0,.23,0,.34H60.62v-1.59h9.19l-.9.55a4,4,0,0,0-.48-2.09,3.75,3.75,0,0,0-1.38-1.44,4.3,4.3,0,0,0-4.1,0,3.66,3.66,0,0,0-1.39,1.45,4.36,4.36,0,0,0-.51,2.13v.37a4.22,4.22,0,0,0,.56,2.17,3.89,3.89,0,0,0,1.57,1.49,5.36,5.36,0,0,0,4.28.16,4.16,4.16,0,0,0,1.54-1.1l1.22,1.42a5.28,5.28,0,0,1-2,1.48A7.27,7.27,0,0,1,65.43,261.17Z"/><path class="cls-6" d="M79.34,261.17a6.67,6.67,0,0,1-3.31-.8,6,6,0,0,1-2.28-2.21,6.68,6.68,0,0,1,0-6.45,5.81,5.81,0,0,1,2.28-2.2,6.78,6.78,0,0,1,3.31-.79,6.56,6.56,0,0,1,3,.65,4.65,4.65,0,0,1,2,1.95l-1.67,1.08a3.67,3.67,0,0,0-1.46-1.32,4,4,0,0,0-1.84-.43,4.26,4.26,0,0,0-2.13.53,3.81,3.81,0,0,0-1.49,1.49,4.4,4.4,0,0,0-.55,2.26,4.48,4.48,0,0,0,.55,2.28,3.77,3.77,0,0,0,1.49,1.5,4.26,4.26,0,0,0,2.13.53,4,4,0,0,0,1.84-.43,3.67,3.67,0,0,0,1.46-1.32l1.67,1.06a4.8,4.8,0,0,1-2,1.94A6.2,6.2,0,0,1,79.34,261.17Z"/><path class="cls-6" d="M88.07,246.48a1.42,1.42,0,0,1-1.06-.41,1.34,1.34,0,0,1-.43-1,1.37,1.37,0,0,1,.43-1,1.42,1.42,0,0,1,1.06-.41,1.5,1.5,0,0,1,1.07.4,1.33,1.33,0,0,1,.42,1,1.49,1.49,0,0,1-.41,1.05A1.46,1.46,0,0,1,88.07,246.48ZM87,261V248.83h2.2V261Z"/><path class="cls-6" d="M99.85,248.72a5.74,5.74,0,0,1,2.62.57,4.17,4.17,0,0,1,1.78,1.75,6.16,6.16,0,0,1,.64,3v7h-2.2v-6.77a3.67,3.67,0,0,0-.86-2.67,3.18,3.18,0,0,0-2.41-.9,4.26,4.26,0,0,0-2,.46A3.09,3.09,0,0,0,96,252.52a4.69,4.69,0,0,0-.47,2.23V261h-2.2V248.83h2.1v3.29l-.34-.87A4.29,4.29,0,0,1,97,249.38,6.07,6.07,0,0,1,99.85,248.72Z"/><path class="cls-6" d="M114.26,261.17a6.7,6.7,0,0,1-3.31-.8,6,6,0,0,1-2.28-2.21,6.75,6.75,0,0,1,0-6.45,5.81,5.81,0,0,1,2.28-2.2,6.81,6.81,0,0,1,3.31-.79,6.5,6.5,0,0,1,2.95.65,4.72,4.72,0,0,1,2,1.95l-1.68,1.08a3.71,3.71,0,0,0-1.45-1.32,4.06,4.06,0,0,0-1.85-.43,4.31,4.31,0,0,0-2.13.53,3.88,3.88,0,0,0-1.49,1.49,4.5,4.5,0,0,0-.55,2.26,4.58,4.58,0,0,0,.55,2.28,3.84,3.84,0,0,0,1.49,1.5,4.31,4.31,0,0,0,2.13.53,4.06,4.06,0,0,0,1.85-.43,3.71,3.71,0,0,0,1.45-1.32l1.68,1.06a4.88,4.88,0,0,1-2,1.94A6.14,6.14,0,0,1,114.26,261.17Z"/><path class="cls-6" d="M120.48,250.65v-1.82h7.74v1.82Zm5.91,10.52a3.88,3.88,0,0,1-2.84-1,3.75,3.75,0,0,1-1-2.83V246.16h2.2v11.1a2.14,2.14,0,0,0,.49,1.52,1.85,1.85,0,0,0,1.41.53,2.56,2.56,0,0,0,1.72-.58l.69,1.59a3.28,3.28,0,0,1-1.21.65A5.34,5.34,0,0,1,126.39,261.17Z"/></g></g></svg>