<svg xmlns="http://www.w3.org/2000/svg" viewBox="0 0 170 267"><defs><style>.cls-1{isolation:isolate;}.cls-2{fill:#92a073;opacity:0.75;}.cls-3{mix-blend-mode:multiply;}.cls-4{fill:#4a4f5c;}.cls-5{fill:#fff;}.cls-6{fill:#58595b;}</style></defs><g class="cls-1"><g id="Art"><path class="cls-2" d="M152.62,0H17.38C7.78,0,0,8.07,0,18V179.14c0,10,7.78,18,17.38,18H152.62c9.6,0,17.38-8.07,17.38-18V18C170,8.07,162.22,0,152.62,0Z"/><g class="cls-3"><g id="_6" data-name="6"><path class="cls-4" d="M45.17,144.05a6.51,6.51,0,0,1-6.48-6.52V79.13a1.74,1.74,0,0,1,1.74-1.75h9.49a1.74,1.74,0,0,1,1.74,1.75v58.4A6.51,6.51,0,0,1,45.17,144.05Zm-3-63.17v56.65a3,3,0,1,0,6,0V80.88Z"/><path class="cls-4" d="M48.25,79.65,45.17,69.59,42.1,79.65l-3.33-1,4.74-15.51a1.74,1.74,0,0,1,3.33,0l4.74,15.51Z"/><rect class="cls-4" x="40.43" y="103.32" width="9.48" height="3.5"/><path class="cls-4" d="M49.92,137.33v-3.51c2.44,0,4.43-2.44,4.43-5.45V117.91c0-3-2-5.44-4.43-5.44V109c4.36,0,7.92,4,7.92,9v10.46C57.84,133.31,54.28,137.33,49.92,137.33Z"/><path class="cls-4" d="M73.26,145.87A11.55,11.55,0,0,1,62,134.11V57a1.75,1.75,0,0,1,1.75-1.75h63.64A1.75,1.75,0,0,1,129.11,57v62.46h-3.49V58.73H65.46v75.38a7.81,7.81,0,1,0,15.6,0v-10h3.49v10A11.55,11.55,0,0,1,73.26,145.87Z"/><path class="cls-4" d="M90.28,83.68H74.88a1.75,1.75,0,0,1-1.74-1.76V66.46a1.74,1.74,0,0,1,1.74-1.75h15.4A1.74,1.74,0,0,1,92,66.46V81.92A1.75,1.75,0,0,1,90.28,83.68ZM76.62,80.17H88.53v-12H76.62Z"/><path class="cls-4" d="M90.28,106.84H74.88a1.74,1.74,0,0,1-1.74-1.75V89.62a1.75,1.75,0,0,1,1.74-1.75h15.4A1.75,1.75,0,0,1,92,89.62v15.47A1.74,1.74,0,0,1,90.28,106.84Zm-13.66-3.5H88.53v-12H76.62Z"/><path class="cls-4" d="M90.28,130H74.88a1.75,1.75,0,0,1-1.74-1.76V112.79A1.74,1.74,0,0,1,74.88,111h15.4A1.74,1.74,0,0,1,92,112.79v15.46A1.75,1.75,0,0,1,90.28,130ZM76.62,126.5H88.53v-12H76.62Z"/><rect class="cls-4" x="98.87" y="99.07" width="11.59" height="3.5"/><rect class="cls-4" x="98.87" y="94" width="17.33" height="3.5"/><rect class="cls-4" x="98.87" y="88.94" width="17.33" height="3.5"/><rect class="cls-4" x="98.87" y="117.17" width="11.59" height="3.5"/><rect class="cls-4" x="98.87" y="112.1" width="17.33" height="3.5"/><rect class="cls-4" x="98.87" y="75.89" width="7.85" height="3.5"/><rect class="cls-4" x="98.87" y="70.83" width="17.33" height="3.5"/><rect class="cls-4" x="98.87" y="65.78" width="17.33" height="3.5"/><path class="cls-5" d="M84.17,103.41h-.23a2.9,2.9,0,0,1-2.16-1.25l-4.7-6.72a1.16,1.16,0,0,1,.32-1.64L80.11,92a1.22,1.22,0,0,1,1.68.31l2.68,3.82,8.75-9.57,4.26,3.69L86.3,102.48A2.9,2.9,0,0,1,84.17,103.41Z"/><path class="cls-4" d="M84.17,102.39h-.11a1.73,1.73,0,0,1-1.32-.74L78,94.86l2.85-2,3.5,5,9.72-10.63,2.57,2.37L85.45,101.82A1.74,1.74,0,0,1,84.17,102.39Z"/><path class="cls-5" d="M82.8,124.16v10a9.78,9.78,0,0,1-9.54,10h54.28c7.27,0,13.17-6.19,13.17-13.81v-6.15Z"/><path class="cls-4" d="M127.54,145.87H73.26a1.75,1.75,0,0,1,0-3.5,8.05,8.05,0,0,0,7.8-8.26v-10a1.74,1.74,0,0,1,1.74-1.75h57.91a1.74,1.74,0,0,1,1.74,1.75v6.14C142.45,138.89,135.76,145.87,127.54,145.87Zm-46.25-3.5h46.25c6.3,0,11.43-5.41,11.43-12.07v-4.39H84.55v8.2A12,12,0,0,1,81.29,142.37Z"/></g></g><path class="cls-6" d="M36.55,238V221.9h6.26a8.87,8.87,0,0,1,3.6.66,5.15,5.15,0,0,1,2.29,1.94,6.06,6.06,0,0,1,0,6,5.11,5.11,0,0,1-2.29,1.92,8.7,8.7,0,0,1-3.6.67h-5l1-1.06v6Zm2.29-5.73-1-1.13h4.93a5.07,5.07,0,0,0,3.33-1,3.33,3.33,0,0,0,1.14-2.69,3.27,3.27,0,0,0-1.14-2.67,5.07,5.07,0,0,0-3.33-.94H37.81l1-1.15ZM47.28,238l-4.08-5.85h2.45L49.78,238Z"/><path class="cls-6" d="M58.3,238.15a7,7,0,0,1-3.43-.81,5.8,5.8,0,0,1-2.29-2.21,6.31,6.31,0,0,1-.81-3.22,6.4,6.4,0,0,1,.79-3.22,5.69,5.69,0,0,1,2.18-2.2,6.59,6.59,0,0,1,6.24,0,5.48,5.48,0,0,1,2.12,2.2,6.82,6.82,0,0,1,.77,3.3c0,.09,0,.2,0,.32a3.39,3.39,0,0,1,0,.35H53.49v-1.59h9.19l-.9.55a4,4,0,0,0-.48-2.09,3.61,3.61,0,0,0-1.38-1.44,4.28,4.28,0,0,0-4.09,0,3.56,3.56,0,0,0-1.4,1.45,4.36,4.36,0,0,0-.51,2.13V232a4.22,4.22,0,0,0,.56,2.17,4,4,0,0,0,1.57,1.49,5,5,0,0,0,2.32.53,5.15,5.15,0,0,0,2-.37,4.43,4.43,0,0,0,1.55-1.11l1.21,1.43A5.16,5.16,0,0,1,61,237.64,7.08,7.08,0,0,1,58.3,238.15Z"/><path class="cls-6" d="M72,237.51a6.49,6.49,0,0,1-3.15-.75,5.67,5.67,0,0,1-2.2-2.09,6.3,6.3,0,0,1,0-6.18,5.6,5.6,0,0,1,2.2-2.06A6.6,6.6,0,0,1,72,225.7a6.33,6.33,0,0,1,2.84.63,4.79,4.79,0,0,1,2,1.94,6.52,6.52,0,0,1,.77,3.32,6.43,6.43,0,0,1-.77,3.29,4.92,4.92,0,0,1-2,2A6.09,6.09,0,0,1,72,237.51Zm.27,5.11a11.39,11.39,0,0,1-3.24-.47,6.71,6.71,0,0,1-2.55-1.35l1-1.71a6.21,6.21,0,0,0,2.09,1.17,7.94,7.94,0,0,0,2.59.42,4.29,4.29,0,0,0,3.16-1,4.23,4.23,0,0,0,1-3.09V234l.23-2.42-.12-2.44v-3.34h2.09v10.55a6.28,6.28,0,0,1-1.61,4.74A6.59,6.59,0,0,1,72.23,242.62Zm0-7.05a4.59,4.59,0,0,0,2.16-.5,3.83,3.83,0,0,0,1.47-1.41,4.24,4.24,0,0,0,0-4.14,3.73,3.73,0,0,0-1.47-1.4,5,5,0,0,0-4.32,0,3.66,3.66,0,0,0-1.49,1.4,4.24,4.24,0,0,0,0,4.14,3.75,3.75,0,0,0,1.49,1.41A4.59,4.59,0,0,0,72.21,235.57Z"/><path class="cls-6" d="M83.83,223.46a1.5,1.5,0,0,1-1.07-.41,1.46,1.46,0,0,1,0-2.05,1.57,1.57,0,0,1,2.13,0,1.3,1.3,0,0,1,.43,1,1.49,1.49,0,0,1-.41,1A1.46,1.46,0,0,1,83.83,223.46ZM82.73,238v-12.2h2.2V238Z"/><path class="cls-6" d="M92.61,238.15a10.07,10.07,0,0,1-2.88-.41,6.78,6.78,0,0,1-2.14-1L88.5,235a7.21,7.21,0,0,0,1.93.9,7.44,7.44,0,0,0,2.34.37A4.24,4.24,0,0,0,95,235.8a1.37,1.37,0,0,0,.67-1.22,1.08,1.08,0,0,0-.41-.9,2.9,2.9,0,0,0-1.09-.48c-.45-.11-1-.2-1.5-.29s-1.1-.19-1.65-.32a6.44,6.44,0,0,1-1.51-.55,2.85,2.85,0,0,1-1.1-1,3,3,0,0,1-.41-1.69,3.1,3.1,0,0,1,.62-1.94,3.91,3.91,0,0,1,1.75-1.28A7.26,7.26,0,0,1,93,225.7a10.64,10.64,0,0,1,2.42.28,6,6,0,0,1,2,.82l-.94,1.75a5.19,5.19,0,0,0-1.71-.76,7.88,7.88,0,0,0-1.79-.21,4,4,0,0,0-2.16.47,1.42,1.42,0,0,0-.71,1.21,1.15,1.15,0,0,0,.43,1,3.22,3.22,0,0,0,1.1.52c.45.12.95.22,1.5.31s1.1.19,1.65.32a6.64,6.64,0,0,1,1.5.54,2.86,2.86,0,0,1,1.1,1,2.92,2.92,0,0,1,.42,1.66,3,3,0,0,1-.64,1.91,4.22,4.22,0,0,1-1.81,1.25A7.77,7.77,0,0,1,92.61,238.15Z"/><path class="cls-6" d="M98.86,227.63v-1.82h7.75v1.82Zm5.91,10.52a3.9,3.9,0,0,1-2.84-1,3.79,3.79,0,0,1-1-2.83V223.14h2.2v11.1a2.15,2.15,0,0,0,.49,1.52,1.85,1.85,0,0,0,1.41.53,2.61,2.61,0,0,0,1.72-.58l.68,1.59a3,3,0,0,1-1.2.64A5.05,5.05,0,0,1,104.77,238.15Z"/><path class="cls-6" d="M115.09,238.15a7,7,0,0,1-3.43-.81,5.73,5.73,0,0,1-2.29-2.21,6.31,6.31,0,0,1-.81-3.22,6.4,6.4,0,0,1,.79-3.22,5.67,5.67,0,0,1,2.17-2.2,6.2,6.2,0,0,1,3.13-.79,6.12,6.12,0,0,1,3.12.78,5.48,5.48,0,0,1,2.12,2.2,6.82,6.82,0,0,1,.77,3.3c0,.09,0,.2,0,.32a1.9,1.9,0,0,1,0,.35H110.28v-1.59h9.19l-.9.55a4,4,0,0,0-.48-2.09,3.64,3.64,0,0,0-1.39-1.44,3.91,3.91,0,0,0-2-.52,4,4,0,0,0-2,.52,3.6,3.6,0,0,0-1.39,1.45,4.36,4.36,0,0,0-.51,2.13V232a4.22,4.22,0,0,0,.56,2.17,4,4,0,0,0,1.57,1.49,5,5,0,0,0,2.32.53,5.18,5.18,0,0,0,2-.37,4.39,4.39,0,0,0,1.54-1.11l1.22,1.43a5.23,5.23,0,0,1-2,1.47A7.08,7.08,0,0,1,115.09,238.15Z"/><path class="cls-6" d="M123.7,238v-12.2h2.11v3.32l-.2-.83a3.73,3.73,0,0,1,1.69-1.94,6,6,0,0,1,2.93-.66v2.14l-.26,0h-.24a3.75,3.75,0,0,0-2.8,1.06,4.26,4.26,0,0,0-1,3.06V238Z"/><path class="cls-6" d="M45.36,261V246.92h-5.5v-2H53.13v2h-5.5V261Z"/><path class="cls-6" d="M59.25,261.17a6.42,6.42,0,0,1-3.25-.8,6,6,0,0,1-2.25-2.22,6.73,6.73,0,0,1,0-6.44,5.94,5.94,0,0,1,2.25-2.2,7.06,7.06,0,0,1,6.49,0,5.78,5.78,0,0,1,2.25,2.19,6.85,6.85,0,0,1,0,6.46,5.9,5.9,0,0,1-2.25,2.21A6.43,6.43,0,0,1,59.25,261.17Zm0-1.93a4.2,4.2,0,0,0,2.1-.53,3.64,3.64,0,0,0,1.45-1.51,4.73,4.73,0,0,0,.53-2.27,4.6,4.6,0,0,0-.53-2.26,3.78,3.78,0,0,0-1.45-1.49,4.2,4.2,0,0,0-2.1-.53,4.1,4.1,0,0,0-2.08.53,4,4,0,0,0-1.47,1.49,4.4,4.4,0,0,0-.55,2.26,4.52,4.52,0,0,0,.55,2.27,3.82,3.82,0,0,0,1.47,1.51A4.1,4.1,0,0,0,59.25,259.24Z"/><path class="cls-6" d="M79.72,261l-7.06-16.12h2.47l6.49,14.87H80.2l6.53-14.87H89L82,261Z"/><path class="cls-6" d="M95,261.17a6.45,6.45,0,0,1-3.25-.8,6,6,0,0,1-2.25-2.22,6.73,6.73,0,0,1,0-6.44,5.94,5.94,0,0,1,2.25-2.2,7.08,7.08,0,0,1,6.5,0,5.82,5.82,0,0,1,2.24,2.19,6.77,6.77,0,0,1,0,6.46,5.94,5.94,0,0,1-2.24,2.21A6.5,6.5,0,0,1,95,261.17Zm0-1.93a4.2,4.2,0,0,0,2.1-.53,3.73,3.73,0,0,0,1.46-1.51,4.72,4.72,0,0,0,.52-2.27,4.6,4.6,0,0,0-.52-2.26,3.87,3.87,0,0,0-1.46-1.49,4.2,4.2,0,0,0-2.1-.53,4.12,4.12,0,0,0-2.08.53,4,4,0,0,0-1.47,1.49,4.5,4.5,0,0,0-.55,2.26,4.62,4.62,0,0,0,.55,2.27,3.88,3.88,0,0,0,1.47,1.51A4.12,4.12,0,0,0,95,259.24Z"/><path class="cls-6" d="M102.63,250.65v-1.82h7.75v1.82Zm5.92,10.52a3.91,3.91,0,0,1-2.85-1,3.79,3.79,0,0,1-1-2.83V246.16h2.2v11.1a2.14,2.14,0,0,0,.49,1.52,1.85,1.85,0,0,0,1.41.53,2.56,2.56,0,0,0,1.72-.58l.68,1.59a3.16,3.16,0,0,1-1.2.65A5,5,0,0,1,108.55,261.17Z"/><path class="cls-6" d="M118.86,261.17a7,7,0,0,1-3.43-.8,5.87,5.87,0,0,1-2.29-2.21,6.35,6.35,0,0,1-.81-3.23,6.43,6.43,0,0,1,.79-3.22,5.73,5.73,0,0,1,2.17-2.2,6.2,6.2,0,0,1,3.13-.79,6.12,6.12,0,0,1,3.12.78,5.54,5.54,0,0,1,2.12,2.2,6.82,6.82,0,0,1,.77,3.3c0,.1,0,.2,0,.33s0,.23,0,.34H114.05v-1.59h9.18l-.89.56a4,4,0,0,0-.48-2.1,3.77,3.77,0,0,0-1.39-1.44,4,4,0,0,0-2-.52,4.07,4.07,0,0,0-2,.52,3.75,3.75,0,0,0-1.4,1.45,4.47,4.47,0,0,0-.5,2.13v.37a4.29,4.29,0,0,0,.56,2.18,3.93,3.93,0,0,0,1.57,1.48,5.33,5.33,0,0,0,4.27.16,4.2,4.2,0,0,0,1.55-1.1l1.22,1.42a5.36,5.36,0,0,1-2.05,1.48A7.08,7.08,0,0,1,118.86,261.17Z"/></g></g></svg>