<svg xmlns="http://www.w3.org/2000/svg" viewBox="0 0 170 267"><defs><style>.cls-1{isolation:isolate;}.cls-2{fill:#edd017;opacity:0.8;}.cls-2,.cls-3{mix-blend-mode:multiply;}.cls-4{fill:#fff;}.cls-5{fill:#4a4f5c;}.cls-6{fill:#58595b;}</style></defs><g class="cls-1"><g id="Art"><path class="cls-2" d="M152.62,0H17.38C7.78,0,0,8.06,0,18V178.86c0,9.94,7.78,18,17.38,18H152.62c9.6,0,17.38-8.06,17.38-18V18C170,8.06,162.22,0,152.62,0Z"/><g class="cls-3"><g id="_13" data-name="13"><path class="cls-4" d="M76.71,45.3h8a1.36,1.36,0,0,1,1.4,1.31V89.89a1.41,1.41,0,0,1-2.32,1L72.63,81.71H36.7a1.36,1.36,0,0,1-1.4-1.31V46.61a1.36,1.36,0,0,1,1.4-1.31h40Z"/><path class="cls-5" d="M84.73,93a3.14,3.14,0,0,1-2-.72L72,83.46H36.7a3.1,3.1,0,0,1-3.14-3.06V46.61a3.1,3.1,0,0,1,3.14-3.06H72.58v3.5H37V80H72.63a1.72,1.72,0,0,1,1.11.4l10.65,8.73v-42H76.71v-3.5h8a3.1,3.1,0,0,1,3.14,3.06V89.89a3,3,0,0,1-1.76,2.75A3.14,3.14,0,0,1,84.73,93Z"/><path class="cls-4" d="M58.05,75.43,45.69,61.16a.37.37,0,0,1,.06-.54l3.71-4.08a.42.42,0,0,1,.58.06l8.13,9.63a.43.43,0,0,0,.64,0L71.29,52.3a.43.43,0,0,1,.58,0l3.59,3.92a.37.37,0,0,1,.05.54L58.68,75.44A.43.43,0,0,1,58.05,75.43Z"/><path class="cls-5" d="M58.36,77.32h0a2.14,2.14,0,0,1-1.6-.75L44.37,62.31a2.13,2.13,0,0,1,.16-2.94l3.88-4.23a2.16,2.16,0,0,1,3,.32l7.16,8.48L70,51.14a2.15,2.15,0,0,1,3-.25l.2.18,3.53,3.86a2.13,2.13,0,0,1,.11,3L60,76.61A2.17,2.17,0,0,1,58.36,77.32ZM47.81,61l10.57,12.2,15-16.67-1.75-1.92L60.1,67.41a2.16,2.16,0,0,1-1.61.72h0a2.17,2.17,0,0,1-1.61-.76l-7.16-8.48Zm26.4-5.4Z"/><path class="cls-4" d="M103.18,64l-.92.1a6.35,6.35,0,0,0-5.64,7l.71,6.17A6.43,6.43,0,0,0,104.44,83l.93-.1a6.36,6.36,0,0,0,5.64-7l-.72-6.17A6.43,6.43,0,0,0,103.18,64Z"/><path class="cls-5" d="M103.72,84.74a8.19,8.19,0,0,1-8.12-7.2l-.72-6.17a8.11,8.11,0,0,1,7.18-9l.93-.1a8.19,8.19,0,0,1,9,7.16l.72,6.17a8,8,0,0,1-1.7,5.94,8.06,8.06,0,0,1-5.48,3l-.93.1A6.94,6.94,0,0,1,103.72,84.74Zm.18-19a4.71,4.71,0,0,0-.53,0h0l-.92.1a4.61,4.61,0,0,0-3.14,1.73,4.52,4.52,0,0,0-1,3.36l.71,6.17a4.71,4.71,0,0,0,5.19,4.09l.93-.11a4.63,4.63,0,0,0,3.14-1.73,4.52,4.52,0,0,0,1-3.36l-.72-6.17A4.68,4.68,0,0,0,103.9,65.74Z"/><path class="cls-5" d="M87.76,119.81l-.16-18.27A12.63,12.63,0,0,1,96,89.42l.1,0,.16-.06A14,14,0,0,1,98,88.9l14-2.42a11.31,11.31,0,0,0,6.73-6.11,106.72,106.72,0,0,0,6.82-22.27,1.78,1.78,0,0,1,.94-1.24,1.73,1.73,0,0,1,1.55,0c5.22,2.6,7.64,7.89,6.47,14.15-1.08,5.78-3.91,20.86-14.74,27.28l0,21.5h-3.49l0-22.52a1.78,1.78,0,0,1,.94-1.55C127.29,90.42,130,75.86,131,70.38c.44-2.36.57-6.36-2.63-9.1a107.94,107.94,0,0,1-6.54,20.52,14.77,14.77,0,0,1-9,8,1.05,1.05,0,0,1-.24.06L98.59,92.34a9.74,9.74,0,0,0-1.27.31l-.13,0-.1,0a9.13,9.13,0,0,0-6,8.78l.16,18.27Z"/><path class="cls-5" d="M70.75,119.8H67.26V107.94a8.35,8.35,0,0,1,8.33-8.35v3.5a4.85,4.85,0,0,0-4.84,4.85Z"/><path class="cls-5" d="M80.24,106.3H78.79a5,5,0,0,1,0-9.92h1.45a5,5,0,0,1,0,9.92Zm-1.45-6.43a1.47,1.47,0,0,0,0,2.93h1.45a1.47,1.47,0,0,0,0-2.93Z"/><path class="cls-5" d="M120.13,158.07l-3.48-.25,1.66-23.29a1.75,1.75,0,0,1,1.74-1.63h3.09l3-11.34H69l3,11.34H75a1.75,1.75,0,0,1,1.74,1.63l1.66,23.29-3.47.25L73.4,136.4H70.59a1.74,1.74,0,0,1-1.69-1.31L65,120.26a1.76,1.76,0,0,1,.31-1.52,1.74,1.74,0,0,1,1.38-.68h61.66a1.74,1.74,0,0,1,1.68,2.2l-3.88,14.83a1.74,1.74,0,0,1-1.68,1.31h-2.81Z"/><rect class="cls-5" x="75.02" y="132.9" width="17.87" height="3.5"/><rect class="cls-5" x="88.41" y="142.16" width="3.49" height="15.78"/><rect class="cls-5" x="95.79" y="142.16" width="3.49" height="15.78"/><rect class="cls-5" x="103.17" y="142.16" width="3.49" height="15.78"/></g></g><path class="cls-6" d="M20.17,238.06V222h1.88l7.2,12.16h-1L35.34,222h1.88l0,16.09H35l0-12.62h.53L29.22,236.1h-1L21.8,225.44h.57v12.62Z"/><path class="cls-6" d="M47.14,238.2a7,7,0,0,1-3.42-.81,5.74,5.74,0,0,1-2.29-2.21,6.18,6.18,0,0,1-.82-3.21,6.4,6.4,0,0,1,.79-3.22,5.69,5.69,0,0,1,2.18-2.2,6.59,6.59,0,0,1,6.24,0,5.42,5.42,0,0,1,2.12,2.2,6.71,6.71,0,0,1,.77,3.3c0,.09,0,.19,0,.32l0,.34H42.33v-1.58h9.19l-.89.55a4.11,4.11,0,0,0-.49-2.09,3.55,3.55,0,0,0-1.38-1.44,4.28,4.28,0,0,0-4.09,0,3.62,3.62,0,0,0-1.4,1.45,4.34,4.34,0,0,0-.5,2.12v.37a4.13,4.13,0,0,0,.56,2.17,3.83,3.83,0,0,0,1.57,1.49,4.92,4.92,0,0,0,2.31.52,5.14,5.14,0,0,0,2-.36,4.43,4.43,0,0,0,1.55-1.11l1.21,1.43a5.36,5.36,0,0,1-2,1.47A7.08,7.08,0,0,1,47.14,238.2Z"/><path class="cls-6" d="M61.17,238.2a7,7,0,0,1-3.43-.81,5.8,5.8,0,0,1-2.29-2.21,6.28,6.28,0,0,1-.81-3.21,6.4,6.4,0,0,1,.79-3.22,5.67,5.67,0,0,1,2.17-2.2,6.2,6.2,0,0,1,3.13-.79,6.12,6.12,0,0,1,3.12.78,5.48,5.48,0,0,1,2.12,2.2,6.82,6.82,0,0,1,.77,3.3c0,.09,0,.19,0,.32s0,.23,0,.34H56.36v-1.58h9.19l-.9.55a4,4,0,0,0-.48-2.09,3.64,3.64,0,0,0-1.39-1.44,3.91,3.91,0,0,0-2.05-.52,4,4,0,0,0-2,.52,3.6,3.6,0,0,0-1.39,1.45,4.35,4.35,0,0,0-.51,2.12v.37a4.22,4.22,0,0,0,.56,2.17,4,4,0,0,0,1.57,1.49,5,5,0,0,0,2.32.52,5.18,5.18,0,0,0,2-.36,4.39,4.39,0,0,0,1.54-1.11L66,236.22a5.44,5.44,0,0,1-2,1.47A7.08,7.08,0,0,1,61.17,238.2Z"/><path class="cls-6" d="M68,227.69v-1.82h7.75v1.82ZM74,238.2a3.91,3.91,0,0,1-2.85-1,3.79,3.79,0,0,1-1-2.83V223.21h2.2v11.08a2.11,2.11,0,0,0,.49,1.51,1.81,1.81,0,0,0,1.41.53,2.6,2.6,0,0,0,1.72-.57l.68,1.58a3,3,0,0,1-1.2.65A5,5,0,0,1,74,238.2Z"/><path class="cls-6" d="M89.63,238.06V231.9l.53,1.42L83.26,222h2.45l5.8,9.58H90.18L96,222h2.27l-6.88,11.35.51-1.42v6.16Z"/><path class="cls-6" d="M104.09,238.2a6.42,6.42,0,0,1-3.25-.81,5.92,5.92,0,0,1-2.25-2.22,6.69,6.69,0,0,1,0-6.42,5.87,5.87,0,0,1,2.25-2.2,7.06,7.06,0,0,1,6.49,0,5.78,5.78,0,0,1,2.25,2.19,6.81,6.81,0,0,1,0,6.44,5.83,5.83,0,0,1-2.25,2.21A6.44,6.44,0,0,1,104.09,238.2Zm0-1.94a4.19,4.19,0,0,0,2.1-.52,3.77,3.77,0,0,0,1.45-1.51,4.71,4.71,0,0,0,.53-2.26,4.64,4.64,0,0,0-.53-2.27,3.75,3.75,0,0,0-1.45-1.48,4.2,4.2,0,0,0-2.1-.53,4.1,4.1,0,0,0-2.08.53,3.94,3.94,0,0,0-1.47,1.48A4.44,4.44,0,0,0,100,232a4.5,4.5,0,0,0,.55,2.26,4,4,0,0,0,1.47,1.51A4.09,4.09,0,0,0,104.09,236.26Z"/><path class="cls-6" d="M118.55,238.2a6.24,6.24,0,0,1-2.74-.58,4,4,0,0,1-1.83-1.76,6,6,0,0,1-.65-3v-7h2.2v6.76a3.72,3.72,0,0,0,.86,2.69,3.16,3.16,0,0,0,2.41.9,4.11,4.11,0,0,0,2-.47,3.21,3.21,0,0,0,1.3-1.38,4.8,4.8,0,0,0,.46-2.2v-6.3h2.2v12.19h-2.08v-3.29l.34.87a4.25,4.25,0,0,1-1.79,1.89A5.44,5.44,0,0,1,118.55,238.2Z"/><path class="cls-6" d="M129,238.06V225.87h2.11v3.31l-.2-.82a3.68,3.68,0,0,1,1.69-1.93,5.89,5.89,0,0,1,2.94-.67v2.14l-.27,0H135a3.73,3.73,0,0,0-2.79,1.06,4.22,4.22,0,0,0-1,3.06v6.07Z"/><path class="cls-6" d="M20.77,261.23a9,9,0,0,1-3.38-.61,8,8,0,0,1-2.69-1.72,8.54,8.54,0,0,1-1.77-9.19,8,8,0,0,1,1.79-2.61,8.1,8.1,0,0,1,2.69-1.72,9.07,9.07,0,0,1,3.38-.61,9.05,9.05,0,0,1,3.42.63,6.94,6.94,0,0,1,2.67,1.88l-1.49,1.44a5.85,5.85,0,0,0-2.06-1.43,6.25,6.25,0,0,0-2.45-.47,6.67,6.67,0,0,0-2.51.46,6,6,0,0,0-2,1.28,5.81,5.81,0,0,0-1.31,2,6.73,6.73,0,0,0,0,4.94,5.91,5.91,0,0,0,1.31,2,6,6,0,0,0,2,1.28,6.67,6.67,0,0,0,2.51.46,6.25,6.25,0,0,0,2.45-.47,5.69,5.69,0,0,0,2.06-1.46l1.49,1.45a6.94,6.94,0,0,1-2.67,1.88A8.93,8.93,0,0,1,20.77,261.23Z"/><path class="cls-6" d="M33.23,261.18a5.66,5.66,0,0,1-2.37-.46,3.63,3.63,0,0,1-1.57-1.27,3.22,3.22,0,0,1-.55-1.85,3.55,3.55,0,0,1,.47-1.8,3.22,3.22,0,0,1,1.54-1.28,6.89,6.89,0,0,1,2.87-.49h3.85v1.59H33.71a3.25,3.25,0,0,0-2.22.55,1.79,1.79,0,0,0-.57,1.33,1.7,1.7,0,0,0,.71,1.44,3.18,3.18,0,0,0,2,.54,4.13,4.13,0,0,0,2.16-.55,3.1,3.1,0,0,0,1.34-1.61l.44,1.52A3.4,3.4,0,0,1,36,260.55,5.49,5.49,0,0,1,33.23,261.18Zm4-.14v-2.57L37.1,258V253.6a2.87,2.87,0,0,0-.81-2.18,3.45,3.45,0,0,0-2.44-.77,6.37,6.37,0,0,0-2.11.36A5.56,5.56,0,0,0,30,252l-.92-1.65a6.62,6.62,0,0,1,2.26-1.16,9.35,9.35,0,0,1,2.76-.4A5.56,5.56,0,0,1,38,250a4.8,4.8,0,0,1,1.35,3.73V261Z"/><path class="cls-6" d="M49.87,248.75a5.74,5.74,0,0,1,2.62.57,4.12,4.12,0,0,1,1.78,1.75,6.09,6.09,0,0,1,.64,3v7h-2.2v-6.75a3.74,3.74,0,0,0-.86-2.67,3.18,3.18,0,0,0-2.42-.9,4.41,4.41,0,0,0-2,.46,3.2,3.2,0,0,0-1.34,1.36,4.81,4.81,0,0,0-.47,2.23V261h-2.2V248.86h2.11v3.29l-.34-.87A4.29,4.29,0,0,1,47,249.41,6.07,6.07,0,0,1,49.87,248.75Z"/><path class="cls-6" d="M64,261.18a6.29,6.29,0,0,1-3.15-.78,5.66,5.66,0,0,1-2.19-2.18,6.44,6.44,0,0,1-.8-3.27,6.34,6.34,0,0,1,.8-3.25,5.64,5.64,0,0,1,2.19-2.17,6.29,6.29,0,0,1,3.15-.78,5.58,5.58,0,0,1,2.77.69,5,5,0,0,1,2,2.06,7.16,7.16,0,0,1,.75,3.45,7.41,7.41,0,0,1-.72,3.45,5,5,0,0,1-2,2.08A5.62,5.62,0,0,1,64,261.18Zm.18-1.93a4.05,4.05,0,0,0,2.08-.53,3.77,3.77,0,0,0,1.46-1.5,4.62,4.62,0,0,0,.54-2.27,4.53,4.53,0,0,0-.54-2.26,3.78,3.78,0,0,0-1.46-1.48,4.05,4.05,0,0,0-2.08-.53,4,4,0,0,0-2.08.53,3.94,3.94,0,0,0-1.47,1.48,4.43,4.43,0,0,0-.55,2.26,4.52,4.52,0,0,0,.55,2.27,3.93,3.93,0,0,0,1.47,1.5A4,4,0,0,0,64.19,259.25ZM68.34,261v-3.28l.14-2.83-.23-2.83V244h2.2V261Z"/><path class="cls-6" d="M75.72,246.52a1.47,1.47,0,0,1-1.07-.42,1.35,1.35,0,0,1-.42-1,1.38,1.38,0,0,1,.42-1,1.57,1.57,0,0,1,2.13,0,1.29,1.29,0,0,1,.43,1,1.45,1.45,0,0,1-.41,1A1.47,1.47,0,0,1,75.72,246.52ZM74.62,261V248.86h2.2V261Z"/><path class="cls-6" d="M86,261.18a6.29,6.29,0,0,1-3.15-.78,5.8,5.8,0,0,1-2.19-2.18,6.55,6.55,0,0,1-.8-3.27,6.44,6.44,0,0,1,.8-3.25,5.78,5.78,0,0,1,2.19-2.17,6.29,6.29,0,0,1,3.15-.78,5.55,5.55,0,0,1,2.77.69,5.07,5.07,0,0,1,2,2.06,7.28,7.28,0,0,1,.74,3.45,7.41,7.41,0,0,1-.72,3.45,4.94,4.94,0,0,1-2,2.08A5.59,5.59,0,0,1,86,261.18Zm.18-1.93a4.05,4.05,0,0,0,2.08-.53,3.79,3.79,0,0,0,1.47-1.5,4.73,4.73,0,0,0,.53-2.27,4.63,4.63,0,0,0-.53-2.26,3.8,3.8,0,0,0-1.47-1.48,4.35,4.35,0,0,0-4.16,0,3.94,3.94,0,0,0-1.47,1.48,4.53,4.53,0,0,0-.55,2.26,4.62,4.62,0,0,0,.55,2.27,3.93,3.93,0,0,0,1.47,1.5A4,4,0,0,0,86.21,259.25ZM90.36,261v-3.28l.14-2.83-.23-2.83V244h2.2V261Z"/><path class="cls-6" d="M100.19,261.18a5.66,5.66,0,0,1-2.37-.46,3.63,3.63,0,0,1-1.57-1.27,3.3,3.3,0,0,1-.55-1.85,3.55,3.55,0,0,1,.47-1.8,3.27,3.27,0,0,1,1.54-1.28,6.92,6.92,0,0,1,2.87-.49h3.85v1.59h-3.75a3.27,3.27,0,0,0-2.23.55,1.79,1.79,0,0,0-.57,1.33,1.73,1.73,0,0,0,.71,1.44,3.18,3.18,0,0,0,2,.54,4.14,4.14,0,0,0,2.17-.55,3.19,3.19,0,0,0,1.34-1.61l.43,1.52a3.42,3.42,0,0,1-1.53,1.71A5.55,5.55,0,0,1,100.19,261.18Zm4-.14v-2.57l-.11-.48V253.6a2.84,2.84,0,0,0-.82-2.18,3.43,3.43,0,0,0-2.44-.77,6.37,6.37,0,0,0-2.11.36A5.79,5.79,0,0,0,97,252l-.91-1.65a6.48,6.48,0,0,1,2.25-1.16,9.35,9.35,0,0,1,2.76-.4,5.56,5.56,0,0,1,3.85,1.21,4.76,4.76,0,0,1,1.36,3.73V261Z"/><path class="cls-6" d="M108.6,250.68v-1.82h7.75v1.82Zm5.92,10.5a3.86,3.86,0,0,1-2.84-1,3.73,3.73,0,0,1-1-2.82V246.2h2.2v11.08a2.13,2.13,0,0,0,.49,1.51,1.85,1.85,0,0,0,1.41.53,2.6,2.6,0,0,0,1.72-.57l.69,1.58A3.28,3.28,0,0,1,116,261,5.34,5.34,0,0,1,114.52,261.18Z"/><path class="cls-6" d="M124.83,261.18a7.15,7.15,0,0,1-3.43-.8,5.8,5.8,0,0,1-2.29-2.21,6.86,6.86,0,0,1,0-6.43,5.69,5.69,0,0,1,2.18-2.2,6.59,6.59,0,0,1,6.24,0,5.52,5.52,0,0,1,2.12,2.19,6.87,6.87,0,0,1,.77,3.3c0,.09,0,.2,0,.32a3.39,3.39,0,0,1,0,.35H120V254.1h9.19l-.9.55a4,4,0,0,0-.48-2.09,3.68,3.68,0,0,0-1.39-1.43,3.91,3.91,0,0,0-2-.52,4,4,0,0,0-2,.52,3.57,3.57,0,0,0-1.39,1.44,4.36,4.36,0,0,0-.51,2.13v.37a4.25,4.25,0,0,0,.56,2.17,3.86,3.86,0,0,0,1.57,1.48,4.87,4.87,0,0,0,2.32.53,5,5,0,0,0,2-.37,4.24,4.24,0,0,0,1.54-1.1l1.22,1.43a5.36,5.36,0,0,1-2.05,1.47A7.27,7.27,0,0,1,124.83,261.18Z"/><path class="cls-6" d="M136.93,261.18a10.07,10.07,0,0,1-2.88-.41,6.78,6.78,0,0,1-2.14-1l.92-1.75a7.88,7.88,0,0,0,4.26,1.26,4.25,4.25,0,0,0,2.21-.43,1.38,1.38,0,0,0,.68-1.22,1.08,1.08,0,0,0-.42-.9,2.84,2.84,0,0,0-1.08-.48c-.46-.11-1-.2-1.51-.29s-1.1-.19-1.65-.32a6.44,6.44,0,0,1-1.51-.55,2.92,2.92,0,0,1-1.1-1,3.08,3.08,0,0,1-.41-1.69,3.16,3.16,0,0,1,.62-1.93,4,4,0,0,1,1.75-1.28,7.51,7.51,0,0,1,2.69-.44,10.64,10.64,0,0,1,2.42.28,6.24,6.24,0,0,1,2,.82l-.94,1.75a5.24,5.24,0,0,0-1.72-.76,7.81,7.81,0,0,0-1.79-.21,4,4,0,0,0-2.15.47,1.4,1.4,0,0,0-.71,1.21,1.14,1.14,0,0,0,.42.95,2.89,2.89,0,0,0,1.1.52,13.15,13.15,0,0,0,1.5.31c.55.09,1.1.19,1.65.32a6.64,6.64,0,0,1,1.5.54,2.71,2.71,0,0,1,1.53,2.62,3,3,0,0,1-.65,1.91,4,4,0,0,1-1.81,1.25A7.77,7.77,0,0,1,136.93,261.18Z"/></g></g></svg>